<svg version="1.1" id="Layer_1" xmlns="http://www.w3.org/2000/svg" xmlns:xlink="http://www.w3.org/1999/xlink" x="0px" y="0px"
	 width="100%" viewBox="0 0 124 124" enable-background="new 0 0 124 124" xml:space="preserve">
<path fill="#FEFEFE" opacity="1.000000" stroke="none" 
	d="
M69.000000,125.000000 
	C46.000000,125.000000 23.500000,125.000000 1.000000,125.000000 
	C1.000000,83.666664 1.000000,42.333332 1.000000,1.000000 
	C42.333332,1.000000 83.666664,1.000000 125.000000,1.000000 
	C125.000000,42.333332 125.000000,83.666664 125.000000,125.000000 
	C106.500000,125.000000 88.000000,125.000000 69.000000,125.000000 
M43.005543,76.494339 
	C43.005543,63.450092 43.005543,50.405846 43.005543,37.210651 
	C48.155033,38.689556 50.391006,41.501358 49.529602,46.472309 
	C49.277695,47.925991 49.177269,49.564484 49.607292,50.929249 
	C49.972874,52.089508 51.201603,52.977795 52.048439,53.986420 
	C52.863712,52.930515 54.287468,51.933498 54.396275,50.809223 
	C55.146366,43.058697 55.607914,35.296085 45.841190,32.350609 
	C45.227280,32.165466 44.750641,31.510204 44.136749,31.342850 
	C42.480701,30.891378 40.601646,30.004114 39.177921,30.453077 
	C38.399506,30.698547 38.050499,33.300354 38.042904,34.842197 
	C37.964161,50.825775 37.994465,66.809891 37.994457,82.793861 
	C37.994453,95.231606 37.953655,95.305809 48.969643,101.361374 
	C50.285992,102.084976 52.338806,101.468842 54.050255,101.473694 
	C53.290157,100.052650 52.850430,97.769028 51.718662,97.348686 
	C43.552738,94.315781 41.680672,88.299965 42.983425,80.484589 
	C43.145447,79.512596 43.005543,78.490280 43.005543,76.494339 
M49.374382,80.386719 
	C49.374577,82.385185 49.056843,84.453850 49.477570,86.359474 
	C49.802433,87.830902 51.053375,89.097878 51.892578,90.455757 
	C52.802841,89.132446 54.414726,87.851852 54.498352,86.478210 
	C54.811489,81.334496 54.959328,76.132309 54.529549,71.005669 
	C54.117405,66.089417 55.352962,62.662479 60.252979,60.952934 
	C73.540184,56.317215 78.402534,46.945732 75.629578,33.342007 
	C75.596977,33.182083 75.685829,32.976807 75.615898,32.848228 
	C74.767296,31.287996 73.899483,29.738211 73.036659,28.185715 
	C72.149445,29.713778 70.650558,31.179245 70.486610,32.781322 
	C69.935585,38.165775 71.579704,44.630108 69.123421,48.725948 
	C66.622803,52.895714 60.265045,54.752655 55.595425,57.621037 
	C54.888081,58.055534 54.215302,58.573345 53.460098,58.898159 
	C50.341038,60.239655 49.032722,62.385616 49.294685,65.932281 
	C49.625011,70.404472 49.374413,74.919556 49.374382,80.386719 
M69.983505,94.383392 
	C69.983513,95.378914 69.970314,96.374641 69.985741,97.369926 
	C70.066086,102.555359 71.415855,103.370010 75.838554,100.821121 
	C78.563164,99.250893 81.404587,97.798447 83.843887,95.854370 
	C85.039948,94.901146 85.439545,92.948578 86.199608,91.448296 
	C84.612587,91.444298 82.871483,91.021164 81.474724,91.534668 
	C79.387383,92.302063 77.542435,93.728767 75.016495,95.215027 
	C75.016495,91.492470 74.535652,88.316559 75.105835,85.342110 
	C76.881683,76.078011 72.751251,70.656319 64.349937,67.908562 
	C62.806805,67.403862 60.932938,67.910400 59.211731,67.950165 
	C60.032936,69.345894 60.559772,71.599312 61.722996,71.998543 
	C69.424477,74.641792 71.184540,80.137787 70.029839,87.450752 
	C69.723106,89.393356 69.983505,91.425507 69.983505,94.383392 
M80.800003,40.501293 
	C80.801529,46.156460 80.657700,51.818375 80.919914,57.461430 
	C80.976387,58.676842 82.497864,59.824177 83.344513,61.002876 
	C84.184120,59.820263 85.730644,58.650581 85.752548,57.453011 
	C85.944145,46.977821 85.930168,36.496590 85.764290,26.020517 
	C85.746895,24.922474 84.355309,23.846188 83.601295,22.759806 
	C82.670036,23.849766 81.016556,24.888641 80.935211,26.038717 
	C80.619133,30.507397 80.802505,35.011402 80.800003,40.501293 
M82.066757,85.038002 
	C84.724640,85.960976 85.817032,84.682846 85.853378,82.205841 
	C85.914360,78.050194 85.987083,73.887558 85.793541,69.740051 
	C85.740662,68.606651 85.042915,67.089073 84.145088,66.484993 
	C81.129227,64.455833 77.972931,62.580395 74.683434,61.047241 
	C73.725487,60.600773 72.142548,61.495266 70.846100,61.775082 
	C71.342110,62.994179 71.563293,65.033127 72.376579,65.305763 
	C80.659546,68.082390 81.895210,74.251900 80.839500,81.753510 
	C80.711166,82.665413 81.215828,83.666382 82.066757,85.038002 
M55.908188,25.620060 
	C53.707649,24.833952 51.405716,21.065456 49.258121,24.680250 
	C47.373463,27.852470 51.295979,28.461758 53.061100,29.887249 
	C53.574501,30.301863 54.135498,30.709770 54.742516,30.947636 
	C58.299473,32.341476 59.759266,34.763374 59.196991,38.663246 
	C58.844841,41.105728 58.925869,43.670837 59.254303,46.121727 
	C59.386116,47.105377 60.558819,48.304447 61.536060,48.678623 
	C62.069859,48.883007 63.899082,47.596531 63.924854,46.934910 
	C64.125008,41.795731 64.791000,36.472771 63.685329,31.574003 
	C63.170155,29.291468 59.042290,27.824329 55.908188,25.620060 
z"/>
<path fill="#040404" opacity="1.000000" stroke="none" 
	d="
M43.005543,76.992813 
	C43.005543,78.490280 43.145447,79.512596 42.983425,80.484589 
	C41.680672,88.299965 43.552738,94.315781 51.718662,97.348686 
	C52.850430,97.769028 53.290157,100.052650 54.050255,101.473694 
	C52.338806,101.468842 50.285992,102.084976 48.969643,101.361374 
	C37.953655,95.305809 37.994453,95.231606 37.994457,82.793861 
	C37.994465,66.809891 37.964161,50.825775 38.042904,34.842197 
	C38.050499,33.300354 38.399506,30.698547 39.177921,30.453077 
	C40.601646,30.004114 42.480701,30.891378 44.136749,31.342850 
	C44.750641,31.510204 45.227280,32.165466 45.841190,32.350609 
	C55.607914,35.296085 55.146366,43.058697 54.396275,50.809223 
	C54.287468,51.933498 52.863712,52.930515 52.048439,53.986416 
	C51.201603,52.977795 49.972874,52.089508 49.607292,50.929249 
	C49.177269,49.564484 49.277695,47.925991 49.529602,46.472309 
	C50.391006,41.501358 48.155033,38.689556 43.005543,37.210651 
	C43.005543,50.405846 43.005543,63.450092 43.005543,76.992813 
z"/>
<path fill="#212121" opacity="1.000000" stroke="none" 
	d="
M49.374409,79.901428 
	C49.374413,74.919556 49.625011,70.404472 49.294685,65.932281 
	C49.032722,62.385616 50.341038,60.239655 53.460098,58.898159 
	C54.215302,58.573345 54.888081,58.055534 55.595425,57.621037 
	C60.265045,54.752655 66.622803,52.895714 69.123421,48.725948 
	C71.579704,44.630108 69.935585,38.165775 70.486610,32.781322 
	C70.650558,31.179245 72.149445,29.713778 73.036659,28.185713 
	C73.899483,29.738211 74.767296,31.287996 75.615898,32.848228 
	C75.685829,32.976807 75.596977,33.182083 75.629578,33.342007 
	C78.402534,46.945732 73.540184,56.317215 60.252979,60.952934 
	C55.352962,62.662479 54.117405,66.089417 54.529549,71.005669 
	C54.959328,76.132309 54.811489,81.334496 54.498352,86.478210 
	C54.414726,87.851852 52.802841,89.132446 51.892578,90.455757 
	C51.053375,89.097878 49.802433,87.830902 49.477570,86.359474 
	C49.056843,84.453850 49.374577,82.385185 49.374409,79.901428 
z"/>
<path fill="#0A0A0A" opacity="1.000000" stroke="none" 
	d="
M69.983505,93.899963 
	C69.983505,91.425507 69.723106,89.393356 70.029839,87.450752 
	C71.184540,80.137787 69.424477,74.641792 61.722996,71.998543 
	C60.559772,71.599312 60.032936,69.345894 59.211731,67.950165 
	C60.932938,67.910400 62.806805,67.403862 64.349937,67.908562 
	C72.751251,70.656319 76.881683,76.078011 75.105835,85.342110 
	C74.535652,88.316559 75.016495,91.492470 75.016495,95.215027 
	C77.542435,93.728767 79.387383,92.302063 81.474724,91.534668 
	C82.871483,91.021164 84.612587,91.444298 86.199608,91.448296 
	C85.439545,92.948578 85.039948,94.901146 83.843887,95.854370 
	C81.404587,97.798447 78.563164,99.250893 75.838554,100.821121 
	C71.415855,103.370010 70.066086,102.555359 69.985741,97.369926 
	C69.970314,96.374641 69.983513,95.378914 69.983505,93.899963 
z"/>
<path fill="#0E0E0E" opacity="1.000000" stroke="none" 
	d="
M80.800003,40.001778 
	C80.802505,35.011402 80.619133,30.507397 80.935211,26.038717 
	C81.016556,24.888641 82.670036,23.849766 83.601295,22.759806 
	C84.355309,23.846188 85.746895,24.922474 85.764290,26.020517 
	C85.930168,36.496590 85.944145,46.977821 85.752548,57.453011 
	C85.730644,58.650581 84.184120,59.820263 83.344513,61.002876 
	C82.497864,59.824177 80.976387,58.676842 80.919914,57.461430 
	C80.657700,51.818375 80.801529,46.156460 80.800003,40.001778 
z"/>
<path fill="#101010" opacity="1.000000" stroke="none" 
	d="
M81.746941,84.832039 
	C81.215828,83.666382 80.711166,82.665413 80.839500,81.753510 
	C81.895210,74.251900 80.659546,68.082390 72.376579,65.305763 
	C71.563293,65.033127 71.342110,62.994179 70.846100,61.775082 
	C72.142548,61.495266 73.725487,60.600773 74.683434,61.047241 
	C77.972931,62.580395 81.129227,64.455833 84.145088,66.484993 
	C85.042915,67.089073 85.740662,68.606651 85.793541,69.740051 
	C85.987083,73.887558 85.914360,78.050194 85.853378,82.205841 
	C85.817032,84.682846 84.724640,85.960976 81.746941,84.832039 
z"/>
<path fill="#0F0F0F" opacity="1.000000" stroke="none" 
	d="
M56.230083,25.803825 
	C59.042290,27.824329 63.170155,29.291468 63.685329,31.574003 
	C64.791000,36.472771 64.125008,41.795731 63.924854,46.934910 
	C63.899082,47.596531 62.069859,48.883007 61.536060,48.678623 
	C60.558819,48.304447 59.386116,47.105377 59.254303,46.121727 
	C58.925869,43.670837 58.844841,41.105728 59.196991,38.663246 
	C59.759266,34.763374 58.299473,32.341476 54.742516,30.947636 
	C54.135498,30.709770 53.574501,30.301863 53.061100,29.887249 
	C51.295979,28.461758 47.373463,27.852470 49.258121,24.680250 
	C51.405716,21.065456 53.707649,24.833952 56.230083,25.803825 
z"/>
</svg>