<?xml version="1.0" standalone="no"?>
<!DOCTYPE svg PUBLIC "-//W3C//DTD SVG 20010904//EN"
 "http://www.w3.org/TR/2001/REC-SVG-20010904/DTD/svg10.dtd">
<svg version="1.0" xmlns="http://www.w3.org/2000/svg"
 width="512.000000pt" height="512.000000pt" viewBox="0 0 512.000000 512.000000"
 preserveAspectRatio="xMidYMid meet">

<g transform="translate(0.000000,512.000000) scale(0.100000,-0.100000)"
fill="#000000" stroke="none">
<path d="M817 5106 c-83 -30 -147 -94 -175 -175 -9 -25 -12 -451 -12 -1687 l0
-1653 22 -21 c27 -25 69 -26 99 -1 l24 19 5 1656 5 1656 33 32 32 33 1710 0
1710 0 32 -33 33 -32 5 -319 c5 -296 6 -320 24 -340 25 -27 79 -28 106 -1 19
19 20 33 20 343 0 316 -1 323 -24 372 -27 59 -72 107 -130 138 l-41 22 -1720
2 c-1430 2 -1726 0 -1758 -11z"/>
<path d="M1589 4467 c-56 -30 -96 -87 -109 -156 -14 -73 -13 -1330 0 -1402 14
-72 51 -123 113 -154 l51 -25 537 0 c507 0 538 1 560 18 33 27 30 78 -5 109
l-27 23 -523 0 c-519 0 -523 0 -542 21 -18 20 -19 47 -19 709 0 662 1 689 19
709 l19 21 897 0 897 0 19 -21 c18 -20 19 -47 19 -709 0 -662 -1 -689 -19
-709 -18 -20 -28 -21 -236 -21 -205 0 -219 -1 -244 -21 -33 -26 -36 -79 -6
-109 19 -19 33 -20 253 -20 229 0 234 0 284 25 63 32 100 82 113 157 7 37 10
295 8 735 l-3 679 -26 49 c-15 30 -42 62 -68 80 l-43 30 -937 3 -937 2 -45
-23z"/>
<path d="M1859 4168 c-20 -11 -46 -38 -58 -58 -20 -36 -21 -52 -21 -302 0
-258 1 -266 23 -298 12 -19 38 -43 57 -54 34 -21 47 -21 700 -21 653 0 666 0
700 21 19 11 45 35 57 54 22 32 23 40 23 298 0 251 -1 266 -21 302 -12 21 -38
47 -59 59 -37 21 -44 21 -701 21 -657 0 -664 -1 -700 -22z m1331 -358 l0 -230
-630 0 -630 0 0 230 0 230 630 0 630 0 0 -230z"/>
<path d="M4390 4007 c-13 -7 -30 -24 -37 -37 -10 -20 -13 -325 -13 -1437 l0
-1413 -1780 0 -1780 0 0 80 c0 89 -11 123 -47 139 -34 16 -47 14 -77 -10 l-26
-21 2 -556 c3 -528 4 -559 22 -596 25 -50 75 -100 129 -128 l42 -23 1735 0
1735 0 41 22 c58 31 103 79 130 138 l24 50 0 1881 c0 1779 -1 1882 -17 1896
-27 24 -55 29 -83 15z m-50 -3407 l0 -370 -34 -38 -34 -37 -1712 0 -1712 0
-34 37 -34 38 0 370 0 370 1780 0 1780 0 0 -370z"/>
<path d="M1955 3155 c-14 -13 -25 -36 -25 -50 0 -33 42 -75 75 -75 33 0 75 42
75 75 0 33 -42 75 -75 75 -14 0 -37 -11 -50 -25z"/>
<path d="M2325 3155 c-14 -13 -25 -36 -25 -50 0 -33 42 -75 75 -75 33 0 75 42
75 75 0 33 -42 75 -75 75 -14 0 -37 -11 -50 -25z"/>
<path d="M2695 3155 c-14 -13 -25 -36 -25 -50 0 -14 11 -37 25 -50 13 -14 36
-25 50 -25 14 0 37 11 50 25 14 13 25 36 25 50 0 14 -11 37 -25 50 -13 14 -36
25 -50 25 -14 0 -37 -11 -50 -25z"/>
<path d="M3065 3155 c-14 -13 -25 -36 -25 -50 0 -14 11 -37 25 -50 13 -14 36
-25 50 -25 14 0 37 11 50 25 14 13 25 36 25 50 0 14 -11 37 -25 50 -13 14 -36
25 -50 25 -14 0 -37 -11 -50 -25z"/>
<path d="M1700 2530 c-25 -25 -26 -71 -1 -101 l19 -24 842 0 842 0 19 24 c25
30 24 76 -1 101 -20 20 -33 20 -860 20 -827 0 -840 0 -860 -20z"/>
</g>
</svg>
