<?xml version="1.0" standalone="no"?>
<!DOCTYPE svg PUBLIC "-//W3C//DTD SVG 20010904//EN"
 "http://www.w3.org/TR/2001/REC-SVG-20010904/DTD/svg10.dtd">
<svg version="1.0" xmlns="http://www.w3.org/2000/svg"
 width="818.000000pt" height="818.000000pt" viewBox="0 0 818.000000 818.000000"
 preserveAspectRatio="xMidYMid meet">

<g transform="translate(0.000000,818.000000) scale(0.100000,-0.100000)"
fill="#000000" stroke="none">
<path d="M1550 4580 l0 -159 158 -3 157 -3 3 -477 2 -478 160 0 160 0 0 480 0
480 154 0 153 0 5 63 c4 48 3 183 -1 250 -1 4 -215 7 -476 7 l-475 0 0 -160z"/>
<path d="M3740 4580 l0 -160 480 0 480 0 0 160 0 160 -480 0 -480 0 0 -160z"/>
<path d="M5660 4580 l0 -160 160 0 160 0 0 -480 0 -480 160 0 160 0 0 480 0
480 160 0 160 0 0 160 0 160 -480 0 -480 0 0 -160z"/>
<path d="M2590 4576 l0 -155 263 -3 c249 -3 264 -4 297 -25 105 -65 100 -215
-10 -270 -42 -22 -55 -23 -297 -23 l-253 0 0 -315 0 -315 160 0 160 0 0 155 0
155 58 0 58 0 109 -155 110 -154 203 -3 c111 -2 202 0 202 4 0 3 -65 97 -145
208 l-144 202 47 48 c243 247 133 678 -199 781 -54 17 -94 19 -340 19 l-279 0
0 -154z"/>
<path d="M5080 4721 c-104 -34 -202 -120 -248 -219 -23 -49 -27 -70 -27 -152
0 -82 4 -103 27 -152 15 -32 48 -80 75 -109 64 -69 140 -106 253 -122 103 -16
133 -36 151 -100 20 -75 -45 -157 -126 -157 -56 0 -125 62 -125 113 0 15 -13
17 -131 17 l-132 0 7 -52 c27 -209 234 -365 439 -330 130 21 233 96 289 210
31 63 33 73 33 172 0 95 -3 110 -28 163 -61 122 -173 200 -314 216 -114 12
-163 52 -163 133 0 73 76 137 146 124 44 -9 92 -50 102 -89 l8 -32 128 -3 129
-3 -5 53 c-9 116 -91 231 -204 289 -62 31 -76 34 -163 36 -53 1 -107 -1 -121
-6z"/>
<path d="M3740 4100 l0 -160 478 2 477 3 3 158 3 157 -481 0 -480 0 0 -160z"/>
<path d="M3740 3620 l0 -160 478 2 477 3 3 158 3 157 -481 0 -480 0 0 -160z"/>
</g>
</svg>
